HIERARCHY
ROOT Hips
{
 OFFSET 0.000000 0.000000 0.000000
 CHANNELS 6 Xposition Yposition Zposition Yrotation Xrotation Zrotation
 JOINT Chest
 {
  OFFSET 0.000000 9.585900 0.002600
  CHANNELS 3 Yrotation Xrotation Zrotation
  JOINT Chest2
  {
   OFFSET 0.000000 9.601200 -0.005300
   CHANNELS 3 Yrotation Xrotation Zrotation
   JOINT Chest3
   {
    OFFSET 0.000000 9.561800 0.000000
    CHANNELS 3 Yrotation Xrotation Zrotation
    JOINT Chest4
    {
     OFFSET 0.000000 9.552100 0.000000
     CHANNELS 3 Yrotation Xrotation Zrotation
     JOINT Neck
     {
      OFFSET 0.000000 14.453000 0.000000
      CHANNELS 3 Yrotation Xrotation Zrotation
      JOINT Head
      {
       OFFSET 0.000000 8.936500 -0.011300
       CHANNELS 3 Yrotation Xrotation Zrotation
       End Site
       {
        OFFSET 0.000000 17.073600 -0.006000
       }
      }
     }
     JOINT RightCollar
     {
      OFFSET -2.921100 9.558500 0.000000
      CHANNELS 3 Yrotation Xrotation Zrotation
      JOINT RightShoulder
      {
       OFFSET -13.519700 0.000000 0.000000
       CHANNELS 3 Yrotation Xrotation Zrotation
       JOINT RightElbow
       {
        OFFSET 0.000000 -29.696600 0.000000
        CHANNELS 3 Yrotation Xrotation Zrotation
        JOINT RightWrist
        {
         OFFSET 0.000000 -24.004700 0.000000
         CHANNELS 3 Yrotation Xrotation Zrotation
         End Site
         {
          OFFSET 0.000000 -17.728500 0.000000
         }
        }
       }
      }
     }
     JOINT LeftCollar
     {
      OFFSET 2.921100 9.558500 0.000000
      CHANNELS 3 Yrotation Xrotation Zrotation
      JOINT LeftShoulder
      {
       OFFSET 13.519700 0.000000 0.000000
       CHANNELS 3 Yrotation Xrotation Zrotation
       JOINT LeftElbow
       {
        OFFSET 0.000000 -29.696600 0.000000
        CHANNELS 3 Yrotation Xrotation Zrotation
        JOINT LeftWrist
        {
         OFFSET 0.000000 -24.004700 0.000000
         CHANNELS 3 Yrotation Xrotation Zrotation
         End Site
         {
          OFFSET 0.000000 -17.728500 0.000000
         }
        }
       }
      }
     }
    }
   }
  }
 }
 JOINT RightHip
 {
  OFFSET -7.771700 -0.012900 -0.001300
  CHANNELS 3 Yrotation Xrotation Zrotation
  JOINT RightKnee
  {
   OFFSET 0.000000 -40.869800 0.001200
   CHANNELS 3 Yrotation Xrotation Zrotation
   JOINT RightAnkle
   {
    OFFSET 0.000000 -39.717900 0.002100
    CHANNELS 3 Yrotation Xrotation Zrotation
    JOINT RightToe
    {
     OFFSET 0.000000 -4.965400 11.033500
     CHANNELS 3 Yrotation Xrotation Zrotation
     End Site
     {
      OFFSET 0.000000 -1.423100 5.872300
     }
    }
   }
  }
 }
 JOINT LeftHip
 {
  OFFSET 7.771700 -0.012900 -0.001300
  CHANNELS 3 Yrotation Xrotation Zrotation
  JOINT LeftKnee
  {
   OFFSET 0.000000 -40.869800 0.001200
   CHANNELS 3 Yrotation Xrotation Zrotation
   JOINT LeftAnkle
   {
    OFFSET 0.000000 -39.717900 0.002100
    CHANNELS 3 Yrotation Xrotation Zrotation
    JOINT LeftToe
    {
     OFFSET 0.000000 -4.965400 11.033500
     CHANNELS 3 Yrotation Xrotation Zrotation
     End Site
     {
      OFFSET 0.000000 -1.423100 5.872300
     }
    }
   }
  }
 }
}
MOTION
Frames: 5
Frame Time: 0.008333
-48.125553 46.857499 9.639507 178.759297 -30.714257 -3.835832 -1.012345 17.141842 2.212681 -0.148732 1.817429 0.253122 -0.263722 3.009291 0.427318 -1.122586 14.993828 2.021121 0.352663 19.728489 2.470206 -0.102672 0.867219 4.402821 -0.239987 2.362331 -1.660149 4.177371 -6.527126 -17.463879 -44.037171 -55.507651 93.751585 -1.753362 3.868970 -15.443573 -0.246914 -0.147611 1.255374 -4.650019 -1.656118 13.255833 65.073078 -70.816228 -103.028714 -1.190155 13.357762 8.720513 -1.658250 -56.952576 -2.325979 149.438694 81.681427 158.346147 -5.697226 -20.674281 -5.294971 0.392408 0.353818 -0.498240 2.895240 -58.305724 9.849767 -97.770575 81.157562 -103.450350 2.017813 -4.450621 8.002518 -0.310692 0.206660 -0.167361
-48.141474 46.862348 9.608934 178.732359 -30.768604 -3.853919 -0.980533 17.191784 2.245421 -0.161276 1.808544 0.256718 -0.263984 3.011374 0.424819 -1.111813 15.002969 2.014254 0.333939 19.705623 2.463733 -0.112611 0.849013 4.411835 -0.238080 2.366715 -1.657574 4.118860 -6.490204 -17.405875 -43.998719 -55.503836 93.729180 -1.762416 3.895728 -15.482131 -0.241683 -0.143159 1.250579 -4.709489 -1.685206 13.254148 65.032655 -70.828376 -102.952131 -1.252343 13.381037 8.686952 -1.871334 -56.901296 -2.490129 152.095356 81.805524 161.037756 -5.577438 -20.760483 -5.258223 0.320917 0.293752 -0.442295 2.832808 -58.260195 9.889003 -98.248887 81.157559 -103.883033 1.989580 -4.498380 7.917238 -0.251723 0.196314 -0.133602
-48.179212 46.866739 9.576768 178.777968 -30.802559 -3.806199 -1.054074 17.212349 2.173712 -0.171167 1.802314 0.267330 -0.261357 3.015004 0.418851 -1.105886 15.014194 1.988607 0.322134 19.687152 2.454991 -0.152030 0.805662 4.398917 -0.235041 2.385992 -1.646099 4.097030 -6.481479 -17.379345 -43.967797 -55.453650 93.706165 -1.776353 3.912609 -15.534458 -0.219074 -0.123723 1.238108 -4.777774 -1.731839 13.263849 65.053214 -70.887856 -102.941353 -1.298606 13.428732 8.648539 -1.969874 -56.860180 -2.928932 155.514024 81.914058 164.458000 -5.365592 -20.873593 -5.196920 0.138930 0.259898 -0.401353 2.888537 -58.221066 9.723195 -98.541543 81.183446 -104.157184 1.921339 -4.464785 7.856801 -0.179662 0.135943 -0.088422
-48.211944 46.867045 9.553107 178.805533 -30.764896 -3.798941 -1.099387 17.166071 2.162421 -0.165001 1.809708 0.259371 -0.261981 3.015375 0.419958 -1.086641 15.018390 1.975132 0.286020 19.658301 2.437926 -0.221371 0.735248 4.362164 -0.234489 2.395241 -1.636432 4.054888 -6.471240 -17.347610 -43.924562 -55.403487 93.683620 -1.793583 3.922497 -15.598208 -0.178744 -0.099929 1.208614 -4.849851 -1.785958 13.294442 65.113363 -70.962584 -102.982496 -1.324724 13.477467 8.607793 -2.137562 -56.907140 -3.272831 160.223823 82.035507 169.206904 -5.316950 -20.909322 -5.206283 0.104825 0.164934 -0.270045 2.868552 -58.260936 9.632137 -98.842955 81.234214 -104.448398 1.905546 -4.446005 7.821334 -0.150214 0.088980 -0.075275
-48.242057 46.869342 9.527039 178.819515 -30.733694 -3.808582 -1.126016 17.133379 2.175913 -0.158049 1.811404 0.251435 -0.253958 3.018822 0.427283 -1.071295 15.020350 1.963509 0.242222 19.625172 2.402965 -0.291656 0.674402 4.312254 -0.245556 2.393032 -1.633963 4.006213 -6.438035 -17.282691 -43.849464 -55.394683 93.646595 -1.815047 3.926404 -15.669653 -0.159499 -0.085229 1.192671 -4.882914 -1.836861 13.308819 65.149284 -71.023738 -103.002466 -1.364274 13.519716 8.562634 -2.350486 -56.934615 -3.592186 165.930022 82.125895 174.949182 -5.291913 -20.926900 -5.245869 0.086388 0.064246 -0.116291 2.848230 -58.290921 9.621028 -98.966818 81.241741 -104.572960 1.863695 -4.437272 7.792802 -0.108961 0.069014 -0.045448
